<svg width="30" height="30" viewBox="0 0 30 30" xmlns="http://www.w3.org/2000/svg">
<path d="M15 0.46875C6.97266 0.46875 0.46875 6.97266 0.46875 15C0.46875 23.0273 6.97266 29.5312 15 29.5312C23.0273 29.5312 29.5312 23.0273 29.5312 15C29.5312 6.97266 23.0273 0.46875 15 0.46875ZM27.6562 15C27.6562 21.9551 22.0254 27.6562 15 27.6562C8.04492 27.6562 2.34375 22.0254 2.34375 15C2.34375 8.04492 7.97461 2.34375 15 2.34375C21.9551 2.34375 27.6562 7.97461 27.6562 15ZM22.5 13.125H18.75V7.03125C18.75 6.25781 18.1172 5.625 17.3438 5.625H12.6562C11.8828 5.625 11.25 6.25781 11.25 7.03125V13.125H7.5C5.83594 13.125 4.99219 15.1465 6.17578 16.3242L13.6758 23.8242C14.4082 24.5566 15.5977 24.5566 16.3301 23.8242L23.8301 16.3242C25.002 15.1465 24.1699 13.125 22.5 13.125ZM15 22.5L7.5 15H13.125V7.5H16.875V15H22.5L15 22.5Z"/>
</svg>
