<svg width="30" height="30" viewBox="0 0 30 30" xmlns="http://www.w3.org/2000/svg">
<path d="M15 29.5312C23.0273 29.5312 29.5312 23.0273 29.5312 15C29.5312 6.97266 23.0273 0.46875 15 0.46875C6.97266 0.46875 0.46875 6.97266 0.46875 15C0.46875 23.0273 6.97266 29.5313 15 29.5312ZM2.34375 15C2.34375 8.04492 7.97461 2.34375 15 2.34375C21.9551 2.34375 27.6562 7.97461 27.6562 15C27.6562 21.9551 22.0254 27.6562 15 27.6562C8.04492 27.6563 2.34375 22.0254 2.34375 15ZM7.5 16.875H11.25V22.9688C11.25 23.7422 11.8828 24.375 12.6562 24.375H17.3438C18.1172 24.375 18.75 23.7422 18.75 22.9688V16.875H22.5C24.1641 16.875 25.0078 14.8535 23.8242 13.6758L16.3242 6.17578C15.5918 5.44336 14.4023 5.44336 13.6699 6.17578L6.16992 13.6758C4.99805 14.8535 5.83008 16.875 7.5 16.875ZM15 7.5L22.5 15L16.875 15V22.5H13.125V15H7.5L15 7.5Z"/>
</svg>
