<svg width="40" height="40" viewBox="0 0 40 40" fill="none" xmlns="http://www.w3.org/2000/svg">
<rect width="40" height="40" rx="6" fill="#3B5998"/>
<path d="M24 17.4818L23.7455 20.2091L23.7182 20.5136H20.9864V27.9909H17.4273V20.5227H15V17.1182H17.4273V15.9863C17.3883 15.3379 17.4858 14.6884 17.7137 14.08C17.9416 13.4716 18.2946 12.9179 18.75 12.4545C19.6091 11.6364 20.8364 11.2182 22.3864 11.2136H23.85V14.5136H22.4136C22.0597 14.4962 21.7082 14.5797 21.4 14.7545C21.2674 14.8594 21.1611 14.9937 21.0893 15.1467C21.0175 15.2997 20.9823 15.4674 20.9864 15.6363V17.1363H24.0318L24 17.4818Z" fill="white"/>
</svg>
