<svg width="40" height="40" viewBox="0 0 40 40" fill="none" xmlns="http://www.w3.org/2000/svg">
<rect width="40" height="40" rx="6" fill="white"/>
<g clip-path="url(#clip0)">
<path d="M32.1935 20.787C32.1935 19.9373 32.1255 19.083 31.9804 18.2471H20.3394V23.0606H27.0056C26.729 24.6131 25.8402 25.9864 24.5386 26.8591V29.9823H28.5157C30.8512 27.8052 32.1935 24.5901 32.1935 20.787Z" fill="#4285F4"/>
<path d="M20.3395 33C23.6681 33 26.4752 31.8931 28.5204 29.9824L24.5433 26.8591C23.4368 27.6216 22.0083 28.0533 20.344 28.0533C17.1243 28.0533 14.3943 25.8532 13.4147 22.8953H9.31067V26.115C11.4058 30.3361 15.6731 33 20.3395 33Z" fill="#34A853"/>
<path d="M13.4102 22.8953C12.8932 21.3428 12.8932 19.6618 13.4102 18.1093V14.8896H9.31065C7.56019 18.4217 7.56019 22.583 9.31065 26.115L13.4102 22.8953Z" fill="#FBBC04"/>
<path d="M20.3395 12.9467C22.099 12.9192 23.7996 13.5898 25.0739 14.8207L28.5975 11.2519C26.3663 9.12991 23.4051 7.96327 20.3395 8.00002C15.6731 8.00002 11.4058 10.664 9.31067 14.8896L13.4102 18.1093C14.3852 15.1468 17.1197 12.9467 20.3395 12.9467Z" fill="#EA4335"/>
</g>
<defs>
<clipPath id="clip0">
<rect width="24.1935" height="25" fill="white" transform="translate(8 8)"/>
</clipPath>
</defs>
</svg>
