<svg width="9" height="9" viewBox="0 0 9 9" fill="none" xmlns="http://www.w3.org/2000/svg">
<circle cx="4.5" cy="4.5" r="4.5" fill="black"/>
<path d="M4.54316 8.30764C3.94669 8.30764 3.46143 7.82237 3.46143 7.2259V5.06244C3.46143 4.46598 3.94669 3.98071 4.54316 3.98071C5.13962 3.98071 5.62489 4.46598 5.62489 5.06244V7.2259C5.62489 7.82237 5.13962 8.30764 4.54316 8.30764ZM4.54316 4.41341C4.18528 4.41341 3.89412 4.70457 3.89412 5.06244V7.2259C3.89412 7.58378 4.18528 7.87494 4.54316 7.87494C4.90105 7.87494 5.19219 7.58378 5.19219 7.2259V5.06244C5.19219 4.70457 4.90105 4.41341 4.54316 4.41341Z" fill="white"/>
<path d="M4.54316 3.54798C3.94669 3.54798 3.46143 3.06272 3.46143 2.46625C3.46143 1.86979 3.94669 1.38452 4.54316 1.38452C5.13962 1.38452 5.62489 1.86979 5.62489 2.46625C5.62489 3.06272 5.13962 3.54798 4.54316 3.54798ZM4.54316 1.81721C4.18528 1.81721 3.89412 2.10838 3.89412 2.46625C3.89412 2.82413 4.18528 3.11529 4.54316 3.11529C4.90103 3.11529 5.19219 2.82413 5.19219 2.46625C5.19219 2.10838 4.90103 1.81721 4.54316 1.81721Z" fill="white"/>
<path d="M3.80758 4.84612L3.46143 6.23073V6.57689L3.80758 7.9615H4.84604L5.53835 6.92304V5.88458L5.1922 4.84612L4.84604 4.15381H4.49989L3.80758 4.84612Z" fill="white"/>
<path d="M4.15373 1.73071L3.80758 2.42302H3.46143L4.15373 3.11533L4.49989 3.46148L5.1922 3.11533L5.53835 2.42302L4.84604 1.73071H4.15373Z" fill="white"/>
</svg>
