<svg width="33" height="33" viewBox="0 0 33 33" fill="none" xmlns="http://www.w3.org/2000/svg">
<g clip-path="url(#clip0)">
<path d="M13.4063 6.1875C10.2139 6.1875 7.61771 8.78493 7.61771 11.9773C7.61771 14.2113 10.0888 17.5977 12.1636 20.0468C12.4736 20.4142 12.9267 20.625 13.4063 20.625C13.8857 20.625 14.3389 20.4142 14.6508 20.0468C16.7237 17.5977 19.1948 14.2106 19.1948 11.9773C19.1948 8.78493 16.5986 6.1875 13.4063 6.1875ZM13.4063 18.3195C11.1304 15.5673 9.68022 13.1059 9.68022 11.9767C9.68022 9.92129 11.3522 8.24936 13.4063 8.24936C15.4603 8.24936 17.1323 9.92129 17.1323 11.9767C17.1323 13.1059 15.6821 15.5673 13.4063 18.3195ZM13.4063 10.3125C12.5522 10.3125 11.8594 11.0048 11.8594 11.8594C11.8594 12.7134 12.5522 13.4062 13.4063 13.4062C14.2603 13.4062 14.9531 12.7134 14.9531 11.8594C14.9531 11.0048 14.2603 10.3125 13.4063 10.3125ZM32.7725 31.0393L24.4587 22.7249C24.3104 22.5766 24.1171 22.4993 23.9108 22.4993H23.2469C25.4577 20.1081 26.8112 16.9177 26.8112 13.4056C26.8112 6.00059 20.8106 0 13.4056 0C6.00059 0 0 6.00059 0 13.4056C0 20.8106 6.00059 26.8112 13.4056 26.8112C16.9183 26.8112 20.1081 25.4577 22.4993 23.2534V23.9108C22.4993 24.1171 22.5831 24.3104 22.7249 24.4587L31.0387 32.7725C31.3416 33.0754 31.8315 33.0754 32.1344 32.7725L32.7725 32.1344C33.0761 31.8321 33.0761 31.3422 32.7725 31.0393ZM13.4056 24.7487C7.13496 24.7487 2.0625 19.6769 2.0625 13.4056C2.0625 7.13432 7.13496 2.0625 13.4056 2.0625C19.6763 2.0625 24.7487 7.13496 24.7487 13.4056C24.7487 19.6769 19.6769 24.7487 13.4056 24.7487Z" fill="#311714"/>
</g>
<defs>
<clipPath id="clip0">
<rect width="33" height="33" fill="white"/>
</clipPath>
</defs>
</svg>
