<svg width="21" height="21" viewBox="0 0 21 21" fill="none" xmlns="http://www.w3.org/2000/svg">
<path d="M10.5 13.9453C9.86573 13.9453 9.35156 14.4595 9.35156 15.0938C9.35156 15.728 9.86573 16.2422 10.5 16.2422C11.1343 16.2422 11.6484 15.728 11.6484 15.0938C11.6484 14.4595 11.1343 13.9453 10.5 13.9453ZM10.8146 12.9609H10.1583C9.88653 12.9609 9.66615 12.7406 9.66615 12.4688V12.4531C9.66615 9.56796 12.8424 9.84375 12.8424 8.04772C12.8424 7.22675 12.1139 6.39844 10.4865 6.39844C9.29111 6.39844 8.67091 6.7942 8.05789 7.57526C7.8976 7.77952 7.6045 7.82115 7.39147 7.67271L6.85277 7.29742C6.62205 7.13668 6.5714 6.81462 6.74428 6.59289C7.61488 5.47616 8.64782 4.75781 10.4865 4.75781C12.6324 4.75781 14.483 5.97807 14.483 8.04772C14.483 10.8127 11.3068 10.6665 11.3068 12.4531V12.4688C11.3068 12.7406 11.0864 12.9609 10.8146 12.9609ZM10.5 1.64062C15.3653 1.64062 19.3594 5.5812 19.3594 10.5C19.3594 15.3928 15.3969 19.3594 10.5 19.3594C5.60913 19.3594 1.64062 15.3988 1.64062 10.5C1.64062 5.61081 5.60282 1.64062 10.5 1.64062ZM10.5 0.328125C4.88262 0.328125 0.328125 4.88426 0.328125 10.5C0.328125 16.119 4.88262 20.6719 10.5 20.6719C16.1174 20.6719 20.6719 16.119 20.6719 10.5C20.6719 4.88426 16.1174 0.328125 10.5 0.328125Z" fill="#FF8908"/>
</svg>
