<svg xmlns="http://www.w3.org/2000/svg" viewBox="0 0 171 173"><defs><style>.cls-1{isolation:isolate;}.cls-2{fill:#ea8823;}.cls-3{fill:#faa61f;}.cls-4{fill:#2f1d1b;}.cls-5{fill:#533430;}</style></defs><g id="figura_1" class="cls-1"><g id="figura_1-2" data-name="figura_1"><path class="cls-2" d="M0,104.3l23.88,13.46s75.77-44.62,89.45,54.71C113.32,172.47,121.25,49.91,0,104.3Z"/></g></g><g id="figura_2" class="cls-1"><g id="figura_2-2" data-name="figura_2"><path class="cls-3" d="M2.16,104.3l21.71,12.59S43,90.51,77.28,96C77.28,96,52,81.43,2.16,104.3Z"/></g></g><g id="elips_1" class="cls-1"><g id="elips_1-2" data-name="elips_1"><ellipse class="cls-2" cx="47.55" cy="65.88" rx="18.89" ry="18.88"/></g></g><g id="elips_2" class="cls-1"><g id="elips_2-2" data-name="elips_2"><ellipse class="cls-3" cx="47.31" cy="59.34" rx="12.16" ry="10.63"/></g></g><g id="figura_11" class="cls-1"><g id="figura_11-2" data-name="figura_11"><path class="cls-4" d="M166.47,40l5-33c-145.57,69.35-19.4,160.13-19.4,160.13C65.09,74.86,166.47,40,166.47,40Z"/></g></g><g id="figura_22" class="cls-1"><g id="figura_22-2" data-name="figura_22"><path class="cls-5" d="M103.77,72.6c20.67-36.38,61.85-33.26,61.85-33.26L169.8,9C109.5,37.09,103.77,72.6,103.77,72.6Z"/></g></g><g id="elips_11" class="cls-1"><g id="elips_11-2" data-name="elips_11"><ellipse class="cls-4" cx="101.3" cy="22.75" rx="22.58" ry="22.5"/></g></g><g id="elips_22" class="cls-1"><g id="elips_22-2" data-name="elips_22"><ellipse class="cls-5" cx="101.06" cy="15" rx="14.53" ry="12.66"/></g></g></svg>